<svg xmlns="http://www.w3.org/2000/svg" width="512" height="512" viewBox="0 0 64 64">
  <path fill="#f4f2f2" d="M18.75 5v7.67c0 1.84-1.91 3.33-3.75 3.33H8v43h43V5z" />
  <path fill="#a1b9f7" d="M18.75 12.67V5L8 16h7c1.84 0 3.75-1.49 3.75-3.33z" />
  <circle cx="34.08" cy="-44.03" r="1.25" fill="#5f85ff" transform="scale(1 -1)"/>
  <path fill="#3cf676" d="m40.03 43.3-.04-.37-1.63-.3a4.13 4.13 0 0 0-.28-.67l.94-1.36-.23-.29c-.3-.37-.63-.7-1-1l-.29-.23-1.37.93c-.22-.1-.44-.2-.67-.28l-.3-1.63-.37-.04a5.62 5.62 0 0 0-1.42 0l-.37.04-.3 1.63c-.24.08-.46.17-.67.28l-1.37-.94-.29.23c-.37.3-.7.63-1 1l-.22.29.93 1.37c-.12.22-.21.44-.28.67l-1.63.3-.05.37c-.06.48-.06.95 0 1.42l.05.37 1.63.3c.07.24.16.46.28.67l-.94 1.37.22.29c.3.37.63.7 1 1l.29.22 1.38-.93c.21.12.43.21.67.28l.3 1.63.37.05c.47.06.94.06 1.42 0l.37-.05.3-1.63c.23-.07.45-.16.67-.28l1.36.94.29-.22c.37-.3.7-.63 1-1l.23-.29-.93-1.38c.1-.21.2-.43.28-.67l1.63-.3.04-.37c.06-.47.06-.94 0-1.42zm-4.45.71a1.5 1.5 0 1 1-3 0 1.5 1.5 0 0 1 3 0z" />
  <path fill="#5f85ff" d="M22.89 9.64h33.48v14H22.89Z" />
  <path fill="#ef9f35" d="m47.98 15.82-.04-.37-1.63-.3a4.13 4.13 0 0 0-.28-.67l.94-1.37-.23-.29c-.3-.37-.63-.7-1-1l-.29-.22-1.37.93c-.22-.11-.44-.2-.67-.28l-.3-1.63-.37-.05a5.62 5.62 0 0 0-1.42 0l-.37.05-.3 1.63c-.23.07-.46.17-.67.28l-1.37-.94-.29.22c-.37.3-.7.63-1 1l-.22.3.93 1.37c-.12.21-.2.44-.28.67l-1.63.3-.05.37c-.06.47-.06.95 0 1.42l.05.37 1.63.3c.07.23.16.45.28.67l-.94 1.36.22.3c.3.37.63.7 1 1l.3.22 1.37-.93c.21.11.44.2.67.28l.3 1.63.37.04c.47.06.95.06 1.42 0l.37-.04.3-1.63c.23-.07.45-.17.67-.28l1.36.94.3-.23c.36-.29.7-.62 1-1l.22-.29-.93-1.37c.11-.22.2-.44.28-.67l1.63-.3.04-.37c.06-.47.06-.95 0-1.42zm-4.45.7a1.5 1.5 0 1 1-3 0 1.5 1.5 0 0 1 3 0z" />
  <path fill="#63c8cd" d="m21.97 29.33-.05-.37-1.63-.3a4.13 4.13 0 0 0-.28-.67l.94-1.36-.22-.3c-.3-.36-.63-.7-1-1l-.3-.22-1.37.93c-.21-.11-.44-.2-.67-.28l-.3-1.63-.37-.04a5.62 5.62 0 0 0-1.42 0l-.37.04-.3 1.63c-.23.08-.45.17-.67.28l-1.36-.94-.3.23c-.36.3-.7.63-1 1l-.22.29.93 1.37c-.11.22-.2.44-.28.67l-1.63.3-.04.37c-.06.47-.06.95 0 1.42l.04.37 1.63.3c.08.23.17.46.28.67l-.94 1.37.23.29c.3.37.63.7 1 1l.29.22 1.37-.93c.22.12.44.2.67.28l.3 1.63.37.05c.47.06.95.06 1.42 0l.37-.05.3-1.63c.23-.07.46-.16.67-.28l1.37.94.29-.22c.37-.3.7-.63 1-1l.22-.3-.93-1.37c.12-.21.2-.44.28-.67l1.63-.3.05-.37c.06-.47.06-.95 0-1.42zm-4.46.71a1.5 1.5 0 1 1-3 0 1.5 1.5 0 0 1 3 0z" />
  <path fill="#5f85ff" d="M12.55 46.85h2.56c.59 0 1.06.24 1.04.53v1.25c0 .29-.46.52-1.04.52h-2.56c-.57 0-1.04-.23-1.04-.52v-1.25c0-.3.46-.53 1.04-.53zm.52-4h3.85c.87 0 1.57.24 1.56.53v1.25c0 .29-.7.52-1.56.52h-3.85c-.86 0-1.56-.23-1.56-.52v-1.25c-.01-.3.7-.53 1.56-.53zm.53-4h5.12c1.16 0 2.1.24 2.08.53v1.25c0 .29-.94.52-2.08.52H13.6c-1.15 0-2.08-.23-2.08-.52v-1.25c-.03-.3.91-.53 2.08-.53z"/>
  <path fill="#fff" d="M29.66 13.05v4.78a2.3 2.3 0 0 1-.62 1.71c-.46.42-1.07.63-1.69.6a2.5 2.5 0 0 1-1.78-.63 2.37 2.37 0 0 1-.67-1.79h1.7a1 1 0 0 0 .18.66c.13.15.32.24.52.23a.6.6 0 0 0 .48-.2.84.84 0 0 0 .17-.58v-4.78zm2.54 6.84a2.2 2.2 0 0 1-1-.74 2 2 0 0 1-.36-1.15h1.82a.82.82 0 0 0 .87.8c.21.01.43-.05.6-.18.15-.11.23-.3.22-.48a.6.6 0 0 0-.17-.43 1.45 1.45 0 0 0-.43-.31c-.24-.1-.48-.18-.73-.25a8.23 8.23 0 0 1-1.11-.42c-.3-.15-.55-.36-.74-.62a1.76 1.76 0 0 1-.31-1.11c-.02-.6.24-1.17.71-1.54.55-.36 1.2-.52 1.85-.46a3 3 0 0 1 1.87.55 2 2 0 0 1 .76 1.55H34.2c0-.2-.1-.4-.25-.54a.87.87 0 0 0-.59-.19.73.73 0 0 0-.5.16c-.3.3-.23.79.13 1 .32.17.65.3 1 .41.38.12.75.27 1.11.44.29.15.54.35.73.61.21.29.32.64.31 1 0 .38-.1.76-.3 1.09-.22.34-.53.6-.89.78a3.57 3.57 0 0 1-2.75.03zm8.06-.46a3.21 3.21 0 0 1 0-5.78 3.96 3.96 0 0 1 1.76-.38c.64 0 1.27.14 1.82.43a3.2 3.2 0 0 1 1.77 2.88 3.1 3.1 0 0 1-.48 1.7c-.3.5-.75.91-1.3 1.2a4.11 4.11 0 0 1-3.62 0zm3.11-1.55c.35-.38.53-.87.5-1.36a1.9 1.9 0 0 0-.5-1.38 1.82 1.82 0 0 0-1.35-.5c-.5-.03-1 .16-1.35.5-.35.38-.53.88-.5 1.38-.03.5.15.98.5 1.36.35.35.84.54 1.35.52.51.01 1-.17 1.35-.52zm10.96 2.19h-1.71l-2.87-4.33v4.33h-1.7v-7h1.7l2.86 4.35v-4.37h1.71z" />
  <path fill="#5f85ff" d="M28.16 45.56h1.28c.29 0 .4.24.23.53l-.7 1.25a1 1 0 0 1-.8.52H26.9c-.29 0-.4-.23-.23-.52l.69-1.25c.15-.3.52-.53.8-.53zm11.93-5.5h1.3c.29 0 .39.24.23.53l-.7 1.27c-.16.28-.51.5-.8.5h-1.3c-.28 0-.38-.22-.22-.5l.7-1.27a1 1 0 0 1 .8-.52zm-16.14 3.78c.25.21.41.5.48.83.05.35-.01.74-.17 1.16-.23.6-.52 1.21-.86 1.82l-.68 1.22c-.1.2-.15.41-.18.6 0 .11.05.2.13.27.14.06.3.1.48.12.2.03.33.14.36.31.04.2-.03.45-.18.7-.37.68-.96 1-1.79 1a2 2 0 0 1-1.19-.31c-.27-.2-.41-.52-.42-.9 0-.41.14-.87.4-1.34a31.57 31.57 0 0 0 1.53-3c.11-.31.14-.6.09-.85a1.3 1.3 0 0 0-.35-.53 1.12 1.12 0 0 1-.33-.44c-.02-.19.05-.4.19-.63.18-.38.56-.74.99-.93.4-.18.82-.4 1.21-.64.29-.19.54-.42.74-.68.23-.3.44-.6.61-.9.18-.33.61-1.11 1.35-2.36.37-.7 1-1.36 1.76-1.85a4.14 4.14 0 0 1 2.26-.69c.83 0 1.05.34.69 1-.13.25-.34.5-.6.71-.22.17-.47.28-.7.3-.25.03-.52.1-.79.2-.22.13-.41.32-.53.52-.15.26-.48.76-.9 1.49-.33.6-.7 1.2-1.11 1.78a5.73 5.73 0 0 1-2.49 2.02zm19.32-.88c-.04-.35.03-.75.2-1.17.23-.59.52-1.18.84-1.78.28-.5.53-1 .75-1.49.1-.2.11-.39.04-.52-.16-.1-.35-.17-.57-.2-.2-.02-.33-.13-.37-.3-.03-.2.03-.46.18-.71.37-.66.97-1 1.79-1 .71-.03 1.26.21 1.5.69.22.5.12 1.16-.28 1.85l-1.3 2.36c-.15.3-.28.6-.37.9a1 1 0 0 0-.01.68 2 2 0 0 0 .5.64c.22.2.2.55-.03.93-.1.22-.29.44-.51.63a5.1 5.1 0 0 1-.8.44 6.4 6.4 0 0 0-.95.53c-.28.25-.53.52-.71.81-.23.33-.44.67-.63 1l-1.1 2a5.1 5.1 0 0 1-2.5 2.24 4 4 0 0 1-1.53.31c-.82 0-1.05-.33-.68-1 .13-.25.34-.5.6-.7.22-.17.47-.28.7-.31.2-.02.4-.06.6-.12.15-.06.3-.15.42-.27.2-.19.36-.4.5-.6l.66-1.22c.33-.61.71-1.22 1.15-1.82a5.73 5.73 0 0 1 2.5-1.99c-.3-.2-.5-.47-.6-.81z" />
</svg>
